<svg width="11" height="15" viewBox="0 0 11 15" fill="none" xmlns="http://www.w3.org/2000/svg">
<path d="M2.67969 10.6758C3.08073 11.0586 3.55469 11.25 4.10156 11.25C4.42969 11.25 4.7487 11.1589 5.05859 10.9766L3.63672 14.4766C3.58203 14.6224 3.47266 14.7044 3.30859 14.7227C3.16276 14.7591 3.03516 14.7227 2.92578 14.6133L1.91406 13.5742L0.492188 13.6289C0.328125 13.6289 0.200521 13.5651 0.109375 13.4375C0.0182292 13.3099 0 13.1732 0.0546875 13.0273L1.3125 9.96484C1.53125 10.1471 1.75911 10.2747 1.99609 10.3477C2.05078 10.3659 2.13281 10.3841 2.24219 10.4023C2.40625 10.4388 2.52474 10.5026 2.59766 10.5938L2.67969 10.6758ZM10.5 13.0273C10.5547 13.1732 10.5365 13.3099 10.4453 13.4375C10.3542 13.5651 10.2266 13.6289 10.0625 13.6289L8.64062 13.5742L7.62891 14.6133C7.51953 14.7227 7.38281 14.7591 7.21875 14.7227C7.07292 14.7044 6.97266 14.6224 6.91797 14.4766L5.49609 10.9766C5.80599 11.1589 6.125 11.25 6.45312 11.25C7 11.25 7.47396 11.0586 7.875 10.6758C7.89323 10.6576 7.92057 10.6302 7.95703 10.5938C8.02995 10.5026 8.14844 10.4388 8.3125 10.4023C8.34896 10.4023 8.3763 10.4023 8.39453 10.4023C8.41276 10.3841 8.43099 10.375 8.44922 10.375C8.48568 10.3568 8.52214 10.3477 8.55859 10.3477C8.79557 10.2747 9.02344 10.1471 9.24219 9.96484L10.5 13.0273ZM7.21875 10.0469C7.03646 10.2292 6.81771 10.3385 6.5625 10.375C6.30729 10.3932 6.07031 10.3385 5.85156 10.2109C5.6875 10.1016 5.49609 10.0469 5.27734 10.0469C5.05859 10.0469 4.86719 10.1016 4.70312 10.2109C4.48438 10.3385 4.2474 10.3932 3.99219 10.375C3.73698 10.3385 3.51823 10.2292 3.33594 10.0469C3.28125 9.99219 3.23568 9.94661 3.19922 9.91016C3.16276 9.8737 3.1263 9.84635 3.08984 9.82812C3.05339 9.79167 3.01693 9.76432 2.98047 9.74609C2.94401 9.70964 2.91667 9.69141 2.89844 9.69141C2.88021 9.67318 2.83464 9.65495 2.76172 9.63672C2.70703 9.61849 2.66146 9.60938 2.625 9.60938C2.60677 9.59115 2.55208 9.57292 2.46094 9.55469C2.38802 9.53646 2.32422 9.51823 2.26953 9.5C1.86849 9.39062 1.61328 9.1263 1.50391 8.70703C1.39453 8.32422 1.3125 8.09635 1.25781 8.02344C1.22135 7.93229 1.06641 7.74089 0.792969 7.44922C0.483073 7.13932 0.382812 6.78385 0.492188 6.38281C0.601562 5.98177 0.65625 5.73568 0.65625 5.64453C0.65625 5.55339 0.601562 5.31641 0.492188 4.93359C0.382812 4.51432 0.483073 4.14974 0.792969 3.83984C1.06641 3.56641 1.22135 3.39323 1.25781 3.32031C1.3125 3.22917 1.39453 2.98307 1.50391 2.58203C1.61328 2.18099 1.86849 1.91667 2.26953 1.78906C2.72526 1.67969 3.02604 1.55208 3.17188 1.40625C3.20833 1.38802 3.31771 1.27865 3.5 1.07812C3.8099 0.768229 4.16536 0.667969 4.56641 0.777344C4.94922 0.886719 5.1862 0.941406 5.27734 0.941406C5.36849 0.941406 5.60547 0.886719 5.98828 0.777344C6.38932 0.667969 6.74479 0.768229 7.05469 1.07812C7.32812 1.36979 7.5013 1.54297 7.57422 1.59766C7.66536 1.63411 7.90234 1.69792 8.28516 1.78906C8.6862 1.91667 8.94141 2.18099 9.05078 2.58203C9.1237 2.85547 9.16016 3.01042 9.16016 3.04688C9.17839 3.08333 9.22396 3.16536 9.29688 3.29297C9.36979 3.42057 9.41536 3.5026 9.43359 3.53906C9.47005 3.55729 9.57943 3.65755 9.76172 3.83984C10.0716 4.14974 10.1719 4.51432 10.0625 4.93359C9.95312 5.31641 9.89844 5.55339 9.89844 5.64453C9.89844 5.73568 9.95312 5.98177 10.0625 6.38281C10.1719 6.78385 10.0716 7.13932 9.76172 7.44922C9.48828 7.74089 9.32422 7.93229 9.26953 8.02344C9.23307 8.09635 9.16016 8.32422 9.05078 8.70703C8.94141 9.1263 8.6862 9.39062 8.28516 9.5C8.23047 9.51823 8.15755 9.53646 8.06641 9.55469C7.97526 9.57292 7.91146 9.59115 7.875 9.60938C7.85677 9.60938 7.8112 9.6276 7.73828 9.66406C7.68359 9.68229 7.63802 9.70052 7.60156 9.71875C7.58333 9.71875 7.54688 9.73698 7.49219 9.77344C7.45573 9.8099 7.41016 9.85547 7.35547 9.91016C7.31901 9.94661 7.27344 9.99219 7.21875 10.0469ZM3.44531 3.70312C2.95312 4.21354 2.70703 4.83333 2.70703 5.5625C2.70703 6.29167 2.95312 6.91146 3.44531 7.42188C3.95573 7.93229 4.56641 8.1875 5.27734 8.1875C5.98828 8.1875 6.58984 7.93229 7.08203 7.42188C7.59245 6.91146 7.84766 6.29167 7.84766 5.5625C7.84766 5.08854 7.72917 4.65104 7.49219 4.25C7.27344 3.84896 6.96354 3.52995 6.5625 3.29297C6.17969 3.05599 5.7513 2.9375 5.27734 2.9375C4.56641 2.9375 3.95573 3.19271 3.44531 3.70312Z" fill="#43AA3D"/>
</svg>
