<svg width="1242" height="560" viewBox="0 0 1242 560" fill="none" xmlns="http://www.w3.org/2000/svg">
<path d="M415.397 412.94H354.037V492H240.167V412.94H21.8665V336.83L207.127 79H328.077L159.927 320.31H243.707V250.1H354.037V320.31H415.397V412.94ZM621.422 500.26C586.022 500.26 554.555 491.803 527.022 474.89C499.488 457.977 477.855 433.393 462.122 401.14C446.782 368.493 439.112 329.947 439.112 285.5C439.112 241.053 446.782 202.703 462.122 170.45C477.855 137.803 499.488 113.023 527.022 96.11C554.555 79.1966 586.022 70.74 621.422 70.74C656.428 70.74 687.698 79.1966 715.232 96.11C742.765 113.023 764.202 137.803 779.542 170.45C795.275 202.703 803.142 241.053 803.142 285.5C803.142 329.947 795.275 368.493 779.542 401.14C764.202 433.393 742.765 457.977 715.232 474.89C687.698 491.803 656.428 500.26 621.422 500.26ZM621.422 404.68C641.088 404.68 656.625 395.24 668.032 376.36C679.832 357.087 685.732 326.8 685.732 285.5C685.732 244.2 679.832 214.11 668.032 195.23C656.625 175.957 641.088 166.32 621.422 166.32C601.362 166.32 585.432 175.957 573.632 195.23C562.225 214.11 556.522 244.2 556.522 285.5C556.522 326.8 562.225 357.087 573.632 376.36C585.432 395.24 601.362 404.68 621.422 404.68ZM1232.41 412.94H1171.05V492H1057.18V412.94H838.878V336.83L1024.14 79H1145.09L976.938 320.31H1060.72V250.1H1171.05V320.31H1232.41V412.94Z" fill="#F2F2F2"/>
<path d="M532.211 331.911C583 340 657.5 345 637 458.5C641 487 639.5 509.5 617.5 538C616.5 520.5 611 505.5 599.5 499.5C599.5 499.5 583.5 505.5 566 505.5C526.5 505.5 476 493.592 452.575 443.047C414.444 360.464 480.49 259.346 480.49 259.346C478.804 263.385 476.275 318.847 532.211 331.911Z" fill="white"/>
<path d="M535.88 380.665C578.6 384.538 605.86 397.177 623.762 438.965C633.323 356.408 565.987 355.388 524.691 352.127C480.75 348.662 476.274 306.262 477.088 303C477.088 303 438.64 387.392 477.088 445.692C500.686 481.365 547.475 489.519 579.617 481.365C586.127 479.531 596.095 474.638 600.57 472.6C610.132 477.696 618.879 489.723 622.744 515C633.119 466.281 608.301 401.254 535.88 380.665Z" fill="#E3E3E3"/>
<path d="M535.883 380.685C578.756 384.559 606.113 397.201 624.079 439C633.674 356.421 566.098 355.402 524.654 352.139C480.557 348.673 476.065 306.262 476.882 303C470.349 329.711 478.719 375.18 535.883 380.685Z" fill="#DEDEDE"/>
</svg>
