<svg width="46" height="36" viewBox="0 0 46 36" fill="none" xmlns="http://www.w3.org/2000/svg">
<path d="M5.05191 5.81106C3.84322 4.67782 1.94471 4.73898 0.811473 5.94767C-0.321768 7.15636 -0.260604 9.05487 0.948087 10.1881L5.05191 5.81106ZM41.0795 10.3043C42.3524 11.365 44.2441 11.1929 45.3047 9.92005C46.3654 8.64717 46.1933 6.75549 44.9205 5.69485L41.0795 10.3043ZM3 7.99959C0.948087 10.1881 0.948541 10.1885 0.949015 10.189C0.949201 10.1892 0.949697 10.1896 0.950069 10.19C0.950813 10.1907 0.95164 10.1914 0.95255 10.1923C0.954369 10.194 0.956519 10.196 0.958997 10.1983C0.963952 10.2029 0.970218 10.2087 0.977772 10.2157C0.992879 10.2297 1.01314 10.2484 1.03837 10.2714C1.08882 10.3175 1.15921 10.3811 1.24798 10.4597C1.42533 10.6169 1.67716 10.8351 1.99085 11.0942C2.61498 11.6095 3.50041 12.3 4.54414 12.9959C6.48057 14.2869 9.54354 16 12.6667 16V10C11.4565 10 9.68609 9.21285 7.87253 8.00371C7.04125 7.44948 6.32252 6.88984 5.81123 6.46764C5.55722 6.25789 5.35853 6.08547 5.22728 5.96917C5.16176 5.9111 5.11333 5.86728 5.08353 5.84008C5.06864 5.82649 5.05843 5.81707 5.05309 5.81213C5.05042 5.80966 5.04897 5.80831 5.04877 5.80812C5.04867 5.80802 5.04887 5.80822 5.0494 5.8087C5.04966 5.80895 5.05 5.80927 5.05042 5.80966C5.05063 5.80986 5.051 5.81021 5.05111 5.8103C5.0515 5.81067 5.05191 5.81106 3 7.99959ZM12.6667 16C18.2371 16 21.828 12.628 24.7997 10.3998L21.2003 5.59937C17.5054 8.36989 15.7629 10 12.6667 10V16ZM24.7997 10.3998C28.5551 7.58399 30.2542 6 33 6V0C27.7458 0 24.1116 3.41643 21.2003 5.59937L24.7997 10.3998ZM33 6C33.433 6 34.1364 6.15056 35.0962 6.55045C36.0191 6.93495 36.9929 7.47065 37.9101 8.04385C38.8193 8.61208 39.6227 9.18545 40.2001 9.61847C40.4872 9.83381 40.7146 10.0115 40.8669 10.1326C40.943 10.1931 41 10.2393 41.0362 10.2688C41.0542 10.2835 41.067 10.294 41.0743 10.3C41.078 10.3031 41.0803 10.305 41.0812 10.3057C41.0816 10.306 41.0817 10.3061 41.0814 10.3059C41.0813 10.3058 41.0811 10.3056 41.0807 10.3053C41.0806 10.3052 41.0803 10.305 41.0802 10.3049C41.0799 10.3046 41.0795 10.3043 43 7.99959C44.9205 5.69485 44.9201 5.69452 44.9197 5.69417C44.9195 5.69403 44.919 5.69367 44.9187 5.69338C44.918 5.69282 44.9173 5.69218 44.9164 5.69146C44.9147 5.69003 44.9126 5.68829 44.9101 5.68625C44.9052 5.68217 44.8988 5.67689 44.891 5.67044C44.8754 5.65756 44.854 5.64001 44.8271 5.61812C44.7734 5.57434 44.6977 5.5131 44.6019 5.43688C44.4104 5.2846 44.1378 5.0717 43.7999 4.81833C43.1273 4.31393 42.1807 3.63741 41.0899 2.95574C40.0071 2.27904 38.7309 1.56484 37.4038 1.01192C36.1136 0.474385 34.567 0 33 0V6Z" fill="#A1D59E"/>
<path d="M5.05191 25.8111C3.84322 24.6778 1.94471 24.739 0.811473 25.9477C-0.321768 27.1564 -0.260604 29.0549 0.948087 30.1881L5.05191 25.8111ZM41.0795 30.3043C42.3524 31.365 44.2441 31.1929 45.3047 29.92C46.3654 28.6472 46.1933 26.7555 44.9205 25.6948L41.0795 30.3043ZM3 27.9996C0.948087 30.1881 0.948541 30.1885 0.949015 30.189C0.949201 30.1892 0.949697 30.1896 0.950069 30.19C0.950813 30.1907 0.95164 30.1914 0.95255 30.1923C0.954369 30.194 0.956519 30.196 0.958997 30.1983C0.963952 30.2029 0.970218 30.2087 0.977772 30.2157C0.992879 30.2297 1.01314 30.2484 1.03837 30.2714C1.08882 30.3175 1.15921 30.3811 1.24798 30.4597C1.42533 30.6169 1.67716 30.8351 1.99085 31.0942C2.61498 31.6095 3.50041 32.3 4.54414 32.9959C6.48057 34.2869 9.54354 36 12.6667 36V30C11.4565 30 9.68609 29.2128 7.87253 28.0037C7.04125 27.4495 6.32252 26.8898 5.81123 26.4676C5.55722 26.2579 5.35853 26.0855 5.22728 25.9692C5.16176 25.9111 5.11333 25.8673 5.08353 25.8401C5.06864 25.8265 5.05843 25.8171 5.05309 25.8121C5.05042 25.8097 5.04897 25.8083 5.04877 25.8081C5.04867 25.808 5.04887 25.8082 5.0494 25.8087C5.04966 25.8089 5.05 25.8093 5.05042 25.8097C5.05063 25.8099 5.051 25.8102 5.05111 25.8103C5.0515 25.8107 5.05191 25.8111 3 27.9996ZM12.6667 36C18.2371 36 21.828 32.628 24.7997 30.3998L21.2003 25.5994C17.5054 28.3699 15.7629 30 12.6667 30V36ZM24.7997 30.3998C28.5551 27.584 30.2542 26 33 26V20C27.7458 20 24.1116 23.4164 21.2003 25.5994L24.7997 30.3998ZM33 26C33.433 26 34.1364 26.1506 35.0962 26.5505C36.0191 26.935 36.9929 27.4707 37.9101 28.0438C38.8193 28.6121 39.6227 29.1854 40.2001 29.6185C40.4872 29.8338 40.7146 30.0115 40.8669 30.1326C40.943 30.1931 41 30.2393 41.0362 30.2688C41.0542 30.2835 41.067 30.294 41.0743 30.3C41.078 30.3031 41.0803 30.305 41.0812 30.3057C41.0816 30.306 41.0817 30.3061 41.0814 30.3059C41.0813 30.3058 41.0811 30.3056 41.0807 30.3053C41.0806 30.3052 41.0803 30.305 41.0802 30.3049C41.0799 30.3046 41.0795 30.3043 43 27.9996C44.9205 25.6948 44.9201 25.6945 44.9197 25.6942C44.9195 25.694 44.919 25.6937 44.9187 25.6934C44.918 25.6928 44.9173 25.6922 44.9164 25.6915C44.9147 25.69 44.9126 25.6883 44.9101 25.6862C44.9052 25.6822 44.8988 25.6769 44.891 25.6704C44.8754 25.6576 44.854 25.64 44.8271 25.6181C44.7734 25.5743 44.6977 25.5131 44.6019 25.4369C44.4104 25.2846 44.1378 25.0717 43.7999 24.8183C43.1273 24.3139 42.1807 23.6374 41.0899 22.9557C40.0071 22.279 38.7309 21.5648 37.4038 21.0119C36.1136 20.4744 34.567 20 33 20V26Z" fill="#A1D59E"/>
</svg>
