<svg width="14" height="11" viewBox="0 0 14 11" fill="none" xmlns="http://www.w3.org/2000/svg">
<path d="M13.7266 3.97266C13.7812 3.91797 13.8359 3.90885 13.8906 3.94531C13.9635 3.98177 14 4.03646 14 4.10938V9.6875C14 10.0521 13.8724 10.362 13.6172 10.6172C13.362 10.8724 13.0521 11 12.6875 11H1.3125C0.947917 11 0.638021 10.8724 0.382812 10.6172C0.127604 10.362 0 10.0521 0 9.6875V4.10938C0 4.03646 0.0273438 3.99089 0.0820312 3.97266C0.154948 3.9362 0.21875 3.9362 0.273438 3.97266C0.875 4.42839 2.27865 5.45833 4.48438 7.0625C4.52083 7.09896 4.63932 7.19922 4.83984 7.36328C5.05859 7.52734 5.23177 7.65495 5.35938 7.74609C5.48698 7.81901 5.65104 7.91927 5.85156 8.04688C6.05208 8.15625 6.24349 8.23828 6.42578 8.29297C6.6263 8.34766 6.81771 8.375 7 8.375C7.16406 8.375 7.32812 8.35677 7.49219 8.32031C7.65625 8.26562 7.8112 8.21094 7.95703 8.15625C8.10286 8.08333 8.25781 7.99219 8.42188 7.88281C8.58594 7.77344 8.72266 7.68229 8.83203 7.60938C8.94141 7.51823 9.06901 7.41797 9.21484 7.30859C9.36068 7.19922 9.46094 7.11719 9.51562 7.0625C11.6667 5.51302 13.0703 4.48307 13.7266 3.97266ZM7 7.5C6.85417 7.5 6.67188 7.45443 6.45312 7.36328C6.2526 7.25391 6.08854 7.16276 5.96094 7.08984C5.83333 6.9987 5.64193 6.86198 5.38672 6.67969C5.14974 6.47917 5.02214 6.37891 5.00391 6.37891C2.77995 4.75651 1.19401 3.58073 0.246094 2.85156C0.0820312 2.72396 0 2.55078 0 2.33203V1.8125C0 1.44792 0.127604 1.13802 0.382812 0.882812C0.638021 0.627604 0.947917 0.5 1.3125 0.5H12.6875C13.0521 0.5 13.362 0.627604 13.6172 0.882812C13.8724 1.13802 14 1.44792 14 1.8125V2.33203C14 2.55078 13.918 2.72396 13.7539 2.85156C12.8607 3.54427 11.2747 4.72005 8.99609 6.37891C8.97786 6.37891 8.84115 6.47917 8.58594 6.67969C8.34896 6.86198 8.16667 6.9987 8.03906 7.08984C7.91146 7.16276 7.73828 7.25391 7.51953 7.36328C7.31901 7.45443 7.14583 7.5 7 7.5Z" fill="#43AA3D"/>
</svg>
