<svg width="13" height="12" viewBox="0 0 13 12" fill="none" xmlns="http://www.w3.org/2000/svg">
<path d="M2.99902 11V9H9.99902V11H2.99902ZM2.99902 6V1H7.99902V2.25C7.99902 2.66406 8.33496 3 8.74902 3H9.99902V6H2.99902ZM11.999 6.5C11.999 6.77344 11.7725 7 11.499 7C11.2256 7 10.999 6.77344 10.999 6.5C10.999 6.22656 11.2256 6 11.499 6C11.7725 6 11.999 6.22656 11.999 6.5ZM12.999 6.5C12.999 5.67969 12.3193 5 11.499 5H10.999V3C10.999 2.58594 10.7646 2.01562 10.4678 1.71875L9.28027 0.53125C8.9834 0.234375 8.41309 -5.96046e-07 7.99902 -5.96046e-07H2.74902C2.33496 -5.96046e-07 1.99902 0.335937 1.99902 0.75V5H1.49902C0.678711 5 -0.000976562 5.67969 -0.000976562 6.5V9.75C-0.000976562 9.88281 0.116211 10 0.249023 10H1.99902V11.25C1.99902 11.6641 2.33496 12 2.74902 12H10.249C10.6631 12 10.999 11.6641 10.999 11.25V10H12.749C12.8818 10 12.999 9.88281 12.999 9.75V6.5Z" fill="#544B48"/>
</svg>
