<svg width="230" height="54" viewBox="0 0 230 54" fill="none" xmlns="http://www.w3.org/2000/svg">
<path d="M80.4453 36.2262V17.392H92.9991V22.8217H86.1974V24.1791H92.4533V29.4815H86.1974V30.7965H92.9991V36.2262H80.4453Z" fill="#544B48"/>
<path d="M104.587 36.2262L103.076 32.663C102.866 32.2388 102.74 31.8146 102.614 31.4328C102.488 31.0511 102.404 30.6269 102.32 30.1602L102.11 28.8452L101.9 30.1602C101.816 30.6269 101.732 31.0511 101.606 31.4328C101.48 31.8146 101.354 32.2388 101.145 32.663L99.6331 36.2262H94.5527V35.3354C94.5527 34.4022 94.6787 33.5538 94.8886 32.7903C95.0986 32.0267 95.4344 31.2207 95.9383 30.4572L98.1635 26.8091L95.9383 23.161C95.4764 22.3551 95.1405 21.5915 94.8886 20.828C94.6787 20.0644 94.5527 19.216 94.5527 18.2828V17.392H99.6331L101.145 20.9552C101.354 21.3794 101.48 21.8036 101.606 22.1854C101.732 22.5672 101.816 22.9914 101.9 23.458L102.11 24.773L102.32 23.458C102.404 22.9914 102.488 22.5672 102.614 22.1854C102.74 21.8036 102.866 21.3794 103.076 20.9552L104.587 17.392H109.668V18.2828C109.668 19.216 109.542 20.0644 109.332 20.828C109.122 21.5915 108.786 22.3975 108.282 23.161L106.057 26.8091L108.282 30.4572C108.744 31.2632 109.08 32.0267 109.332 32.7903C109.542 33.5538 109.668 34.4022 109.668 35.3354V36.2262H104.587Z" fill="#544B48"/>
<path d="M122.054 36.2262V29.6088H117.141V36.2262H111.347V17.392H117.141V24.0094H122.096V17.392H127.89V36.2262H122.054Z" fill="#544B48"/>
<path d="M138.974 36.4808C137.505 36.4808 136.203 36.3111 135.069 35.9293C133.936 35.5475 132.97 34.9961 132.214 34.1901C131.459 33.4265 130.871 32.4085 130.451 31.1783C130.073 29.9482 129.863 28.4635 129.863 26.7667C129.863 25.0699 130.073 23.5852 130.451 22.3551C130.829 21.1249 131.417 20.1068 132.214 19.3433C132.97 18.5797 133.936 17.9859 135.069 17.6041C136.203 17.2223 137.505 17.0526 138.974 17.0526C140.444 17.0526 141.745 17.2223 142.879 17.6041C144.012 17.9859 144.936 18.5373 145.734 19.3433C146.49 20.1068 147.077 21.1249 147.497 22.3551C147.875 23.5852 148.085 25.0699 148.085 26.7667C148.085 28.4635 147.875 29.9482 147.497 31.1783C147.119 32.4085 146.532 33.4265 145.734 34.1901C144.978 34.9536 144.012 35.5475 142.879 35.9293C141.703 36.3111 140.444 36.4808 138.974 36.4808ZM138.974 30.6693C139.52 30.6693 139.982 30.6269 140.402 30.542C140.821 30.4572 141.157 30.2875 141.451 30.033C141.745 29.7785 141.955 29.3967 142.081 28.8452C142.249 28.3362 142.291 27.6151 142.291 26.7667C142.291 25.8759 142.207 25.1972 142.081 24.6457C141.913 24.1367 141.703 23.7125 141.451 23.458C141.157 23.2035 140.821 23.0338 140.402 22.9489C139.982 22.8641 139.52 22.8217 138.974 22.8217C138.428 22.8217 137.966 22.8641 137.547 22.9489C137.127 23.0338 136.791 23.2035 136.497 23.458C136.203 23.7125 135.993 24.1367 135.867 24.6457C135.699 25.1547 135.657 25.8759 135.657 26.7667C135.657 27.6575 135.741 28.3362 135.867 28.8452C136.035 29.3543 136.245 29.7361 136.497 30.033C136.749 30.3299 137.127 30.4572 137.547 30.542C137.924 30.6269 138.428 30.6693 138.974 30.6693Z" fill="#544B48"/>
<path d="M64.0288 17.392V22.9489H68.2274V36.2262H73.9795V22.9489H78.1361V17.392H64.0288Z" fill="#544B48"/>
<path d="M51.4329 0H14.4852C13.6874 0 13.0156 0.678712 13.0156 1.48468V9.84132H8.10327C8.10327 12.5562 10.2865 14.762 12.9737 14.762H38.2913V54C40.9784 54 43.1617 51.7942 43.1617 49.0793V44.7101H51.391C52.1887 44.7101 52.8605 44.0314 52.8605 43.2255V1.48468C52.8605 0.678712 52.2307 0 51.4329 0ZM48.0321 39.7895H43.1617V11.326C43.1617 10.52 42.4899 9.84132 41.6922 9.84132H17.886V4.92066H48.0321V39.7895Z" fill="#544B48"/>
<path d="M160.261 36.2262V22.9489H155.852V36.2262H150.058V17.392H166.013V36.2262H160.261Z" fill="#43AA3D"/>
<path d="M179.449 36.2262V22.9489H177.517L176.971 29.9906C176.846 31.2632 176.678 32.3236 176.342 33.172C176.048 34.0204 175.628 34.6991 175.124 35.1657C174.62 35.6748 174.032 36.0141 173.319 36.1838C172.605 36.3535 171.849 36.4808 170.967 36.4808C170.338 36.4808 169.75 36.4383 169.204 36.3111C168.7 36.1838 168.07 35.9293 167.399 35.5051L169.162 31.1359C169.414 31.2632 169.582 31.348 169.708 31.3904C169.834 31.4328 170.002 31.4328 170.254 31.4328C170.422 31.4328 170.59 31.4328 170.674 31.3904C170.8 31.348 170.842 31.3056 170.926 31.2207C170.967 31.1359 171.051 30.9662 171.051 30.7965C171.093 30.5844 171.093 30.3299 171.135 29.9906L171.933 18.4101L172.479 18.1555C173.151 17.8586 173.823 17.6465 174.452 17.5192C175.082 17.392 175.796 17.3496 176.51 17.3496H185.159V36.1838H179.449V36.2262Z" fill="#43AA3D"/>
<path d="M187.762 36.2262V17.392H193.556V24.0094H195.152C195.571 21.5491 196.495 19.8099 198.007 18.707C199.518 17.6041 201.533 17.0526 204.011 17.0526C205.48 17.0526 206.782 17.2223 207.915 17.6041C209.049 17.9859 209.973 18.5373 210.77 19.3433C211.526 20.1068 212.114 21.1249 212.534 22.3551C212.912 23.5852 213.122 25.0699 213.122 26.7667C213.122 28.4635 212.912 29.9482 212.534 31.1783C212.156 32.4085 211.568 33.4265 210.77 34.1901C210.015 34.9536 209.049 35.5475 207.915 35.9293C206.782 36.3111 205.48 36.4808 204.011 36.4808C201.491 36.4808 199.518 35.9293 198.007 34.8688C196.495 33.7659 195.529 32.0267 195.152 29.6088H193.556V36.2262H187.762ZM204.053 30.6693C204.598 30.6693 205.06 30.6269 205.48 30.542C205.9 30.4572 206.236 30.2875 206.53 30.033C206.824 29.7785 207.034 29.3967 207.16 28.8452C207.327 28.3362 207.369 27.6151 207.369 26.7667C207.369 25.8759 207.286 25.1972 207.16 24.6457C206.992 24.1367 206.782 23.7125 206.53 23.458C206.236 23.2035 205.9 23.0338 205.48 22.9489C205.06 22.8641 204.598 22.8217 204.053 22.8217C203.507 22.8217 203.045 22.8641 202.625 22.9489C202.205 23.0338 201.869 23.2035 201.575 23.458C201.281 23.7125 201.072 24.1367 200.946 24.6457C200.778 25.1547 200.736 25.8759 200.736 26.7667C200.736 27.6575 200.82 28.3362 200.946 28.8452C201.114 29.3543 201.323 29.7361 201.575 30.033C201.869 30.2875 202.205 30.4572 202.625 30.542C203.045 30.6269 203.507 30.6693 204.053 30.6693Z" fill="#43AA3D"/>
<path d="M230 34.7416C229.79 34.8688 229.496 35.0385 229.076 35.2506C228.698 35.4627 228.237 35.6324 227.691 35.8445C227.145 36.0141 226.599 36.1838 225.927 36.3111C225.298 36.4383 224.626 36.4808 223.912 36.4808C222.442 36.4808 221.141 36.3111 220.007 35.9293C218.874 35.5475 217.908 34.9961 217.152 34.1901C216.397 33.4265 215.809 32.4085 215.389 31.1783C215.011 29.9482 214.801 28.4635 214.801 26.7667C214.801 25.0699 215.011 23.5852 215.389 22.3551C215.767 21.1249 216.355 20.1068 217.152 19.3433C217.908 18.5797 218.874 17.9859 220.007 17.6041C221.141 17.2223 222.442 17.0526 223.912 17.0526C224.668 17.0526 225.34 17.1375 225.969 17.2647C226.599 17.392 227.187 17.5617 227.733 17.7313C228.279 17.901 228.698 18.1131 229.076 18.2828C229.454 18.4949 229.748 18.6646 229.958 18.7918L227.985 23.7973C227.649 23.6276 227.271 23.5004 226.851 23.3731C226.473 23.2459 226.053 23.161 225.675 23.0762C225.298 22.9914 224.92 22.9489 224.584 22.9065C224.248 22.8641 223.954 22.8641 223.744 22.8641C223.24 22.8641 222.778 22.9065 222.401 22.9914C222.023 23.0762 221.687 23.2459 221.393 23.5004C221.099 23.7549 220.889 24.1791 220.763 24.6881C220.637 25.1972 220.553 25.9183 220.553 26.8091C220.553 27.6999 220.637 28.3786 220.763 28.8877C220.889 29.3967 221.099 29.7785 221.393 30.0754C221.687 30.3299 222.023 30.542 222.401 30.6269C222.778 30.7117 223.24 30.7541 223.744 30.7541C223.954 30.7541 224.248 30.7541 224.584 30.7117C224.92 30.6693 225.298 30.6269 225.675 30.542C226.053 30.4572 226.431 30.3723 226.851 30.2451C227.229 30.1178 227.607 29.9906 227.985 29.8209L230 34.7416Z" fill="#43AA3D"/>
<path d="M15.6608 26.0031C24.4779 26.8091 30.1041 29.4391 33.7988 38.1351C35.7722 20.9552 21.8748 20.7431 13.3516 20.0644C4.28259 19.3433 3.35889 10.52 3.52683 9.84132C3.52683 9.84132 -4.40854 27.403 3.52683 39.535C8.39723 46.9584 18.054 48.6551 24.6878 46.9584C26.0314 46.5766 28.0887 45.5585 29.0124 45.1343C30.9858 46.1948 32.7912 48.6976 33.5889 53.9576C35.7302 43.8193 30.6079 30.2875 15.6608 26.0031Z" fill="#43AA3D"/>
<path d="M15.6609 26.0031C24.478 26.8091 30.1041 29.4391 33.7989 38.1351C35.7722 20.9552 21.8748 20.7431 13.3516 20.0644C4.28263 19.3433 3.35894 10.52 3.52688 9.84132C2.18333 15.3983 3.90476 24.8578 15.6609 26.0031Z" fill="#308E28"/>
</svg>
