<svg width="230" height="54" viewBox="0 0 230 54" fill="none" xmlns="http://www.w3.org/2000/svg">
<path d="M80.4453 36.2263V17.3921H92.9991V22.8218H86.1974V24.1792H92.4533V29.4816H86.1974V30.7966H92.9991V36.2263H80.4453Z" fill="white"/>
<path d="M104.587 36.2263L103.076 32.6631C102.866 32.2389 102.74 31.8147 102.614 31.4329C102.488 31.0512 102.404 30.627 102.32 30.1604L102.11 28.8454L101.9 30.1604C101.816 30.627 101.732 31.0512 101.606 31.4329C101.48 31.8147 101.354 32.2389 101.145 32.6631L99.6331 36.2263H94.5527V35.3355C94.5527 34.4023 94.6787 33.5539 94.8886 32.7904C95.0986 32.0268 95.4344 31.2208 95.9383 30.4573L98.1635 26.8092L95.9383 23.1611C95.4764 22.3552 95.1405 21.5916 94.8886 20.8281C94.6787 20.0645 94.5527 19.2161 94.5527 18.2829V17.3921H99.6331L101.145 20.9553C101.354 21.3795 101.48 21.8037 101.606 22.1855C101.732 22.5673 101.816 22.9915 101.9 23.4581L102.11 24.7731L102.32 23.4581C102.404 22.9915 102.488 22.5673 102.614 22.1855C102.74 21.8037 102.866 21.3795 103.076 20.9553L104.587 17.3921H109.668V18.2829C109.668 19.2161 109.542 20.0645 109.332 20.8281C109.122 21.5916 108.786 22.3976 108.282 23.1611L106.057 26.8092L108.282 30.4573C108.744 31.2633 109.08 32.0268 109.332 32.7904C109.542 33.5539 109.668 34.4023 109.668 35.3355V36.2263H104.587Z" fill="white"/>
<path d="M122.054 36.2263V29.6089H117.141V36.2263H111.347V17.3921H117.141V24.0095H122.096V17.3921H127.89V36.2263H122.054Z" fill="white"/>
<path d="M138.974 36.4809C137.505 36.4809 136.203 36.3112 135.069 35.9294C133.936 35.5476 132.97 34.9962 132.214 34.1902C131.459 33.4267 130.871 32.4086 130.451 31.1784C130.073 29.9483 129.863 28.4636 129.863 26.7668C129.863 25.07 130.073 23.5853 130.451 22.3552C130.829 21.125 131.417 20.1069 132.214 19.3434C132.97 18.5798 133.936 17.986 135.069 17.6042C136.203 17.2224 137.505 17.0527 138.974 17.0527C140.444 17.0527 141.745 17.2224 142.879 17.6042C144.012 17.986 144.936 18.5374 145.734 19.3434C146.49 20.1069 147.077 21.125 147.497 22.3552C147.875 23.5853 148.085 25.07 148.085 26.7668C148.085 28.4636 147.875 29.9483 147.497 31.1784C147.119 32.4086 146.532 33.4267 145.734 34.1902C144.978 34.9538 144.012 35.5476 142.879 35.9294C141.703 36.3112 140.444 36.4809 138.974 36.4809ZM138.974 30.6694C139.52 30.6694 139.982 30.627 140.402 30.5421C140.821 30.4573 141.157 30.2876 141.451 30.0331C141.745 29.7786 141.955 29.3968 142.081 28.8453C142.249 28.3363 142.291 27.6152 142.291 26.7668C142.291 25.876 142.207 25.1973 142.081 24.6458C141.913 24.1368 141.703 23.7126 141.451 23.4581C141.157 23.2036 140.821 23.0339 140.402 22.949C139.982 22.8642 139.52 22.8218 138.974 22.8218C138.428 22.8218 137.966 22.8642 137.547 22.949C137.127 23.0339 136.791 23.2036 136.497 23.4581C136.203 23.7126 135.993 24.1368 135.867 24.6458C135.699 25.1549 135.657 25.876 135.657 26.7668C135.657 27.6576 135.741 28.3363 135.867 28.8453C136.035 29.3544 136.245 29.7362 136.497 30.0331C136.749 30.33 137.127 30.4573 137.547 30.5421C137.924 30.627 138.428 30.6694 138.974 30.6694Z" fill="white"/>
<path d="M64.0288 17.3921V22.949H68.2274V36.2263H73.9795V22.949H78.1361V17.3921H64.0288Z" fill="white"/>
<path d="M51.4329 0H14.4852C13.6874 0 13.0156 0.678712 13.0156 1.48468V9.84132H8.10327C8.10327 12.5562 10.2865 14.762 12.9737 14.762H38.2913V54C40.9784 54 43.1617 51.7942 43.1617 49.0793V44.7101H51.391C52.1887 44.7101 52.8605 44.0314 52.8605 43.2255V1.48468C52.8605 0.678712 52.2307 0 51.4329 0ZM48.0321 39.7895H43.1617V11.326C43.1617 10.52 42.4899 9.84132 41.6922 9.84132H17.886V4.92066H48.0321V39.7895Z" fill="white"/>
<path d="M160.261 36.2263V22.949H155.852V36.2263H150.058V17.3921H166.013V36.2263H160.261Z" fill="#43AA3D"/>
<path d="M179.449 36.2263V22.949H177.517L176.971 29.9906C176.846 31.2632 176.678 32.3237 176.342 33.1721C176.048 34.0205 175.628 34.6992 175.124 35.1658C174.62 35.6748 174.032 36.0142 173.319 36.1839C172.605 36.3535 171.849 36.4808 170.967 36.4808C170.338 36.4808 169.75 36.4384 169.204 36.3111C168.7 36.1839 168.07 35.9293 167.399 35.5051L169.162 31.1359C169.414 31.2632 169.582 31.348 169.708 31.3905C169.834 31.4329 170.002 31.4329 170.254 31.4329C170.422 31.4329 170.59 31.4329 170.674 31.3905C170.8 31.348 170.842 31.3056 170.926 31.2208C170.967 31.1359 171.051 30.9663 171.051 30.7966C171.093 30.5845 171.093 30.33 171.135 29.9906L171.933 18.4101L172.479 18.1556C173.151 17.8586 173.823 17.6465 174.452 17.5193C175.082 17.392 175.796 17.3496 176.51 17.3496H185.159V36.1839H179.449V36.2263Z" fill="#43AA3D"/>
<path d="M187.762 36.2263V17.3921H193.556V24.0095H195.152C195.571 21.5492 196.495 19.81 198.007 18.7071C199.518 17.6042 201.533 17.0527 204.011 17.0527C205.48 17.0527 206.782 17.2224 207.915 17.6042C209.049 17.986 209.973 18.5374 210.77 19.3434C211.526 20.1069 212.114 21.125 212.534 22.3552C212.912 23.5853 213.122 25.07 213.122 26.7668C213.122 28.4636 212.912 29.9483 212.534 31.1784C212.156 32.4086 211.568 33.4267 210.77 34.1902C210.015 34.9538 209.049 35.5476 207.915 35.9294C206.782 36.3112 205.48 36.4809 204.011 36.4809C201.491 36.4809 199.518 35.9294 198.007 34.8689C196.495 33.766 195.529 32.0268 195.152 29.6089H193.556V36.2263H187.762ZM204.053 30.6694C204.598 30.6694 205.06 30.627 205.48 30.5421C205.9 30.4573 206.236 30.2876 206.53 30.0331C206.824 29.7786 207.034 29.3968 207.16 28.8453C207.327 28.3363 207.369 27.6152 207.369 26.7668C207.369 25.876 207.286 25.1973 207.16 24.6458C206.992 24.1368 206.782 23.7126 206.53 23.4581C206.236 23.2036 205.9 23.0339 205.48 22.949C205.06 22.8642 204.598 22.8218 204.053 22.8218C203.507 22.8218 203.045 22.8642 202.625 22.949C202.205 23.0339 201.869 23.2036 201.575 23.4581C201.281 23.7126 201.072 24.1368 200.946 24.6458C200.778 25.1549 200.736 25.876 200.736 26.7668C200.736 27.6576 200.82 28.3363 200.946 28.8453C201.114 29.3544 201.323 29.7362 201.575 30.0331C201.869 30.2876 202.205 30.4573 202.625 30.5421C203.045 30.627 203.507 30.6694 204.053 30.6694Z" fill="#43AA3D"/>
<path d="M230 34.7417C229.79 34.8689 229.496 35.0386 229.076 35.2507C228.698 35.4628 228.237 35.6325 227.691 35.8446C227.145 36.0142 226.599 36.1839 225.927 36.3112C225.298 36.4384 224.626 36.4809 223.912 36.4809C222.442 36.4809 221.141 36.3112 220.007 35.9294C218.874 35.5476 217.908 34.9962 217.152 34.1902C216.397 33.4267 215.809 32.4086 215.389 31.1784C215.011 29.9483 214.801 28.4636 214.801 26.7668C214.801 25.07 215.011 23.5853 215.389 22.3552C215.767 21.125 216.355 20.1069 217.152 19.3434C217.908 18.5798 218.874 17.986 220.007 17.6042C221.141 17.2224 222.442 17.0527 223.912 17.0527C224.668 17.0527 225.34 17.1376 225.969 17.2648C226.599 17.3921 227.187 17.5618 227.733 17.7314C228.279 17.9011 228.698 18.1132 229.076 18.2829C229.454 18.495 229.748 18.6647 229.958 18.7919L227.985 23.7974C227.649 23.6278 227.271 23.5005 226.851 23.3732C226.473 23.246 226.053 23.1611 225.675 23.0763C225.298 22.9915 224.92 22.949 224.584 22.9066C224.248 22.8642 223.954 22.8642 223.744 22.8642C223.24 22.8642 222.778 22.9066 222.401 22.9915C222.023 23.0763 221.687 23.246 221.393 23.5005C221.099 23.755 220.889 24.1792 220.763 24.6882C220.637 25.1973 220.553 25.9184 220.553 26.8092C220.553 27.7 220.637 28.3787 220.763 28.8878C220.889 29.3968 221.099 29.7786 221.393 30.0755C221.687 30.33 222.023 30.5421 222.401 30.627C222.778 30.7118 223.24 30.7542 223.744 30.7542C223.954 30.7542 224.248 30.7542 224.584 30.7118C224.92 30.6694 225.298 30.627 225.675 30.5421C226.053 30.4573 226.431 30.3725 226.851 30.2452C227.229 30.1179 227.607 29.9907 227.985 29.821L230 34.7417Z" fill="#43AA3D"/>
<path d="M15.6608 26.0031C24.4779 26.8091 30.1041 29.4391 33.7988 38.1351C35.7722 20.9552 21.8748 20.7431 13.3516 20.0644C4.28259 19.3433 3.35889 10.52 3.52683 9.84131C3.52683 9.84131 -4.40854 27.403 3.52683 39.5349C8.39723 46.9584 18.054 48.6551 24.6878 46.9584C26.0314 46.5766 28.0887 45.5585 29.0124 45.1343C30.9858 46.1948 32.7912 48.6976 33.5889 53.9576C35.7302 43.8193 30.6079 30.2875 15.6608 26.0031Z" fill="#43AA3D"/>
<path d="M15.6609 26.0031C24.478 26.8091 30.1041 29.4391 33.7989 38.1351C35.7722 20.9552 21.8748 20.7431 13.3516 20.0644C4.28263 19.3433 3.35894 10.52 3.52688 9.84131C2.18333 15.3983 3.90476 24.8578 15.6609 26.0031Z" fill="#308E28"/>
</svg>
