<svg width="23" height="18" viewBox="0 0 23 18" fill="none" xmlns="http://www.w3.org/2000/svg">
<path fill-rule="evenodd" clip-rule="evenodd" d="M22.9929 1.00429C22.9929 0.984291 22.9929 0.964233 22.9929 0.944233C22.9929 0.924233 22.9929 0.914194 22.9929 0.904194C22.9929 0.894194 22.9929 0.864379 22.9839 0.844379C22.9749 0.824379 22.9839 0.81434 22.9759 0.80434C22.973 0.78722 22.9683 0.770408 22.9619 0.754291C22.9619 0.734291 22.9539 0.724243 22.9489 0.704243C22.9439 0.684243 22.9369 0.674194 22.9309 0.654194C22.9249 0.634194 22.9189 0.624399 22.9119 0.614399C22.9049 0.604399 22.8979 0.58435 22.8909 0.56435C22.8839 0.54435 22.8739 0.534311 22.8649 0.524311C22.8599 0.509615 22.8521 0.495992 22.8419 0.484272C22.8333 0.466153 22.8221 0.449276 22.8089 0.434223C22.8089 0.424223 22.8019 0.424203 22.7979 0.414203C22.7901 0.409701 22.7841 0.402615 22.7809 0.394184C22.7671 0.382895 22.7552 0.36958 22.7459 0.354389C22.7321 0.3431 22.7203 0.329541 22.7109 0.31435L22.6769 0.284321C22.6607 0.273476 22.6465 0.259909 22.6349 0.244282C22.6239 0.234282 22.6129 0.234262 22.6009 0.224262C22.5884 0.207959 22.5728 0.194313 22.5549 0.184223C22.5429 0.174223 22.5309 0.174203 22.5179 0.164203L22.4709 0.134174C22.4569 0.124174 22.4419 0.124399 22.4279 0.114399C22.415 0.103678 22.3995 0.0967328 22.3829 0.0943793C22.3682 0.0835195 22.351 0.076611 22.3329 0.0743597C22.3189 0.0643597 22.3049 0.0643402 22.2899 0.0543402C22.2749 0.0443402 22.2539 0.0443304 22.2349 0.0443304C22.2159 0.0443304 22.2069 0.0343109 22.1919 0.0243109C22.1733 0.0260824 22.1546 0.0226086 22.1379 0.0143011H22.0889C22.0736 0.0061626 22.0562 0.00267681 22.0389 0.00429137H0.954868C0.937266 0.00276556 0.919626 0.00624113 0.903904 0.0143011H0.855869C0.838731 0.0224037 0.81977 0.0258623 0.800877 0.0243109C0.785877 0.0343109 0.772884 0.0343304 0.758884 0.0443304C0.744884 0.0543304 0.720915 0.0543402 0.702915 0.0543402C0.684915 0.0543402 0.6749 0.0643597 0.6619 0.0743597C0.643115 0.0763639 0.625184 0.0832795 0.609898 0.0943793C0.59389 0.0966068 0.578885 0.103592 0.566868 0.114399C0.551868 0.124399 0.536885 0.124174 0.521885 0.134174L0.475864 0.164203C0.462864 0.174203 0.449901 0.174223 0.437901 0.184223C0.420335 0.194355 0.405039 0.208005 0.392918 0.224262C0.380918 0.234262 0.368884 0.234282 0.357884 0.244282C0.346592 0.259851 0.332711 0.273417 0.316868 0.284321L0.281895 0.31435C0.272841 0.329464 0.261357 0.343019 0.247898 0.354389C0.238518 0.369866 0.226294 0.383231 0.211887 0.394184C0.210629 0.39853 0.20847 0.402699 0.20554 0.406147C0.202609 0.409594 0.199006 0.412261 0.19492 0.414203C0.19199 0.421065 0.188641 0.427763 0.18491 0.434223C0.171308 0.449019 0.160147 0.465948 0.15189 0.484272C0.141708 0.495992 0.133887 0.509615 0.12888 0.524311C0.11988 0.534311 0.110902 0.55435 0.101902 0.56435C0.0929021 0.57435 0.0878825 0.594399 0.0818825 0.614399C0.0758825 0.634399 0.068863 0.644194 0.061863 0.654194C0.054863 0.664194 0.0498952 0.684243 0.0448952 0.704243C0.0398952 0.724243 0.0359182 0.734291 0.0309182 0.754291C0.0248766 0.770467 0.0205197 0.787271 0.0179177 0.80434C0.0179177 0.81434 0.0118845 0.834379 0.00888449 0.844379C0.00588449 0.854379 0.00288889 0.884194 0.000888889 0.904194C-0.00111111 0.924194 0.000888889 0.934233 0.000888889 0.944233C0.000888889 0.954233 0.000888889 0.984291 0.000888889 1.00429C0.000888889 1.02429 0.000888889 1.01431 0.000888889 1.02431V15.9843C0.00484193 16.2579 0.117004 16.519 0.31284 16.7101C0.508675 16.9013 0.772225 17.007 1.04587 17.0043H21.9549C22.2287 17.0072 22.4925 16.9015 22.6886 16.7103C22.8846 16.5192 22.9969 16.2581 23.0009 15.9843V1.02431C22.9929 1.01431 22.9929 1.01429 22.9929 1.00429ZM18.7549 2.04433L11.4939 7.23427L4.23288 2.04433H18.7549ZM2.08487 14.9643V3.03432L10.8759 9.32436C11.0557 9.45435 11.272 9.52431 11.4939 9.52431C11.7158 9.52431 11.9321 9.45435 12.1119 9.32436L20.9029 3.03432V14.9643H2.0839H2.08487Z" fill="#E6E6E6"/>
</svg>
