<svg width="20" height="25" viewBox="0 0 20 25" fill="none" xmlns="http://www.w3.org/2000/svg">
<path fill-rule="evenodd" clip-rule="evenodd" d="M10 5.16159C9.12628 5.19611 8.28197 5.48681 7.5722 5.99752C6.86244 6.50824 6.31858 7.21642 6.00824 8.0339C5.6979 8.85138 5.63482 9.74212 5.82684 10.5952C6.01887 11.4482 6.4575 12.2261 7.0882 12.8318C7.71889 13.4374 8.51376 13.8441 9.3739 14.0014C10.234 14.1588 11.1215 14.0597 11.9257 13.7165C12.73 13.3733 13.4155 12.8011 13.897 12.0713C14.3786 11.3414 14.6349 10.4862 14.634 9.61178C14.6069 8.40804 14.1042 7.26387 13.2357 6.4299C12.3673 5.59592 11.2038 5.13986 10 5.16159ZM10 12.1916C9.49402 12.1718 9.00503 12.0038 8.59387 11.7082C8.18272 11.4126 7.86753 11.0026 7.68756 10.5293C7.50759 10.056 7.47076 9.54018 7.58167 9.04611C7.69257 8.55203 7.94634 8.10144 8.31134 7.75045C8.67634 7.39947 9.13648 7.16372 9.63452 7.07223C10.1326 6.98074 10.6465 7.0377 11.1124 7.23605C11.5783 7.4344 11.9756 7.7653 12.2549 8.18771C12.5341 8.61012 12.683 9.10541 12.683 9.61178C12.668 10.3093 12.3773 10.9722 11.8744 11.4558C11.3715 11.9393 10.6975 12.2039 10 12.1916ZM10 0.00167454C7.40062 -0.0463011 4.88828 0.938277 3.01373 2.73971C1.13919 4.54115 0.0554134 7.01255 0 9.61178V9.88156C0 12.5616 1.60001 15.6816 4.75201 19.1616C6.17746 20.737 7.72748 22.1951 9.38702 23.5217L10 24.0017L10.613 23.5217C12.2725 22.1951 13.8225 20.737 15.248 19.1616C18.401 15.6816 20 12.5616 20 9.88156V9.61178C19.9446 7.01255 18.8608 4.54115 16.9863 2.73971C15.1117 0.938277 12.5994 -0.0463011 10 0.00167454ZM18.049 9.88156C18.049 14.4116 11.976 19.8917 10 21.5617C8.023 19.8917 1.95099 14.4116 1.95099 9.88156V9.61178C2.02452 7.52589 2.90486 5.54994 4.40649 4.10031C5.90813 2.65067 7.91379 1.84054 10.001 1.84054C12.0882 1.84054 14.0939 2.65067 15.5955 4.10031C17.0972 5.54994 17.9775 7.52589 18.051 9.61178V9.88156H18.049Z" fill="#E6E6E6"/>
</svg>
