<svg width="23" height="24" viewBox="0 0 23 24" fill="none" xmlns="http://www.w3.org/2000/svg">
<path fill-rule="evenodd" clip-rule="evenodd" d="M7.36907 13.1202C7.56694 12.9277 7.83202 12.8199 8.10803 12.8199C8.38403 12.8199 8.64917 12.9277 8.84704 13.1202L10.969 15.25L15.2441 10.97L13.123 8.85015C13.0257 8.75307 12.9485 8.63753 12.8957 8.51055C12.843 8.38356 12.8159 8.24764 12.8159 8.11016C12.8159 7.97267 12.843 7.8365 12.8957 7.70952C12.9485 7.58254 13.0257 7.46724 13.123 7.37017L17.399 3.09014C17.496 2.99269 17.6112 2.91537 17.7381 2.8626C17.865 2.80983 18.0011 2.78252 18.1385 2.78252C18.276 2.78252 18.4121 2.80983 18.539 2.8626C18.6659 2.91537 18.7811 2.99269 18.878 3.09014L21.7341 5.95C23.0401 7.26 23.348 9.33009 22.6 11.7901C21.7485 14.2974 20.3083 16.564 18.4001 18.4C15.5651 21.24 12.087 23 9.32403 23C8.70544 23.0247 8.08822 22.925 7.50884 22.7068C6.92947 22.4887 6.39975 22.1566 5.95104 21.73L3.09405 18.8799C2.89815 18.6835 2.78814 18.4174 2.78814 18.1399C2.78814 17.8625 2.89815 17.5964 3.09405 17.4L7.36907 13.1202ZM7.42907 20.2601C7.6858 20.489 7.98563 20.6646 8.31103 20.7762C8.63643 20.8878 8.9808 20.9332 9.32403 20.91C11.524 20.91 14.5011 19.34 16.9241 16.92C18.5903 15.3274 19.8514 13.3593 20.602 11.18C21.102 9.51998 20.9811 8.14998 20.2581 7.42998L18.1401 5.31011L15.3401 8.11016L17.462 10.23C17.6579 10.4265 17.7679 10.6926 17.7679 10.97C17.7679 11.2475 17.6579 11.5136 17.462 11.71L11.7081 17.46C11.6111 17.5575 11.4959 17.6348 11.369 17.6875C11.2421 17.7403 11.106 17.7676 10.9686 17.7676C10.8311 17.7676 10.695 17.7403 10.5681 17.6875C10.4412 17.6348 10.326 17.5575 10.2291 17.46L8.10803 15.3401L5.30804 18.1399C6.14804 18.9799 7.40007 20.2301 7.42907 20.2601ZM3.26904 3.27007C4.30245 2.22987 5.53214 1.40513 6.88671 0.843799C8.24128 0.28247 9.69376 -0.00429211 11.16 4.85499e-05C11.4372 4.85499e-05 11.703 0.110225 11.899 0.306201C12.095 0.502176 12.2051 0.767819 12.2051 1.04497C12.2051 1.32212 12.095 1.58801 11.899 1.78398C11.703 1.97996 11.4372 2.09014 11.16 2.09014C8.75508 2.09199 6.4492 3.04803 4.74865 4.74858C3.0481 6.44914 2.09194 8.75502 2.09008 11.16C2.09008 11.4371 1.97997 11.703 1.78399 11.899C1.58801 12.0949 1.32219 12.2051 1.04504 12.2051C0.767887 12.2051 0.502122 12.0949 0.306146 11.899C0.110171 11.703 5.48824e-05 11.4371 5.48824e-05 11.16C-0.00456097 9.69389 0.282027 8.24168 0.843195 6.88726C1.40436 5.53283 2.22892 4.30328 3.26904 3.27007ZM6.13604 11.16C6.13604 11.4371 6.02599 11.703 5.83001 11.899C5.63404 12.0949 5.36821 12.2051 5.09106 12.2051C4.81391 12.2051 4.54808 12.0949 4.35211 11.899C4.15613 11.703 4.04608 11.4371 4.04608 11.16C4.04845 9.27339 4.7985 7.46475 6.13195 6.13018C7.4654 4.7956 9.27346 4.04406 11.16 4.04009C11.4372 4.04009 11.703 4.15026 11.899 4.34624C12.095 4.54222 12.2051 4.80786 12.2051 5.08501C12.2051 5.36216 12.095 5.62805 11.899 5.82402C11.703 6.02 11.4372 6.12993 11.16 6.12993C9.82744 6.13284 8.55036 6.66413 7.60864 7.60698C6.66691 8.54983 6.13736 9.82737 6.13604 11.16Z" fill="#E6E6E6"/>
</svg>
