<svg width="20" height="20" viewBox="0 0 20 20" fill="none" xmlns="http://www.w3.org/2000/svg">
<path fill-rule="evenodd" clip-rule="evenodd" d="M19.7438 18.5653L14.9337 13.7593C16.3037 12.0879 16.9787 9.95379 16.819 7.79859C16.6593 5.6434 15.6771 3.6321 14.0757 2.18094C12.4743 0.729774 10.3762 -0.050172 8.21571 0.00250461C6.05524 0.0551812 3.99778 0.93645 2.46899 2.46393C0.940212 3.99142 0.0571901 6.04819 0.00268183 8.20861C-0.0518265 10.369 0.726339 12.4677 2.17615 14.0703C3.62595 15.673 5.63645 16.6569 7.79151 16.8184C9.94657 16.98 12.0813 16.3068 13.7538 14.9383L18.5637 19.7383C18.7218 19.8819 18.9291 19.9592 19.1426 19.9544C19.3561 19.9496 19.5596 19.863 19.7111 19.7124C19.8625 19.5618 19.9504 19.3589 19.9564 19.1454C19.9625 18.9319 19.8864 18.7242 19.7438 18.5653V18.5653ZM8.41383 15.1653C7.07914 15.1633 5.7749 14.7657 4.66614 14.0227C3.55738 13.2797 2.69387 12.2247 2.18457 10.991C1.67527 9.75732 1.54307 8.40034 1.80481 7.09157C2.06655 5.78281 2.71043 4.58101 3.65503 3.63808C4.59963 2.69516 5.80259 2.05343 7.11182 1.79402C8.42106 1.5346 9.77785 1.66914 11.0106 2.18063C12.2434 2.69212 13.2968 3.55761 14.0379 4.66768C14.7789 5.77776 15.1742 7.0826 15.1738 8.41729C15.1715 10.2084 14.4581 11.9253 13.1906 13.1908C11.923 14.4563 10.205 15.1668 8.41383 15.1663V15.1653Z" fill="#544B48"/>
</svg>
