<svg width="32" height="32" viewBox="0 0 32 32" fill="none" xmlns="http://www.w3.org/2000/svg">
<rect x="0.5" y="0.5" width="31" height="31" rx="3.5" stroke="#A1D59E"/>
<path fill-rule="evenodd" clip-rule="evenodd" d="M22.3393 21.5718L19.206 18.4412C20.0984 17.3524 20.5381 15.9622 20.434 14.5583C20.33 13.1544 19.6902 11.8442 18.647 10.8989C17.6039 9.95364 16.2371 9.44558 14.8298 9.47989C13.4225 9.51421 12.0822 10.0883 11.0863 11.0833C10.0905 12.0783 9.51528 13.4181 9.47977 14.8254C9.44427 16.2327 9.95117 17.5998 10.8956 18.6438C11.84 19.6878 13.1497 20.3287 14.5535 20.4339C15.9573 20.5392 17.3478 20.1007 18.4374 19.2092L21.5706 22.3359C21.6736 22.4295 21.8086 22.4799 21.9477 22.4767C22.0867 22.4736 22.2193 22.4172 22.318 22.3191C22.4166 22.221 22.4738 22.0888 22.4778 21.9497C22.4818 21.8106 22.4322 21.6754 22.3393 21.5718V21.5718ZM14.9589 19.357C14.0894 19.3558 13.2398 19.0967 12.5176 18.6128C11.7953 18.1288 11.2328 17.4415 10.9011 16.6379C10.5693 15.8343 10.4832 14.9503 10.6537 14.0978C10.8242 13.2452 11.2436 12.4624 11.8589 11.8481C12.4743 11.2339 13.2579 10.8159 14.1107 10.6469C14.9636 10.4779 15.8474 10.5656 16.6504 10.8987C17.4535 11.2319 18.1397 11.7957 18.6224 12.5188C19.1051 13.2419 19.3626 14.0919 19.3624 14.9613C19.3608 16.1281 18.8962 17.2465 18.0705 18.0709C17.2448 18.8952 16.1256 19.358 14.9589 19.3577V19.357Z" fill="#A1D59E"/>
</svg>
